<?xml version="1.0" encoding="UTF-8"?>
<svg id="Camada_1" data-name="Camada 1" xmlns="http://www.w3.org/2000/svg" version="1.1" viewBox="0 0 1080 945.19">
  <defs>
    <style>
      .cls-1 {
        fill: #fff;
        stroke-width: 0px;
      }
    </style>
  </defs>
  <path class="cls-1" d="M877.55,585.7h-234.23l-23.22-69.69c-11.51-34.53-43.7-57.74-80.1-57.74s-68.58,23.2-80.09,57.73l-23.24,69.7h-234.23l17.9-17.57C374.87,416.47,472.63,218.71,488.54,25.57c.58-7.02,6.55-12.52,13.59-12.52h75.74c7.04,0,13.01,5.5,13.59,12.53,15.91,193.11,113.67,390.87,268.2,542.56l17.9,17.57ZM658.11,565.2h169.73c-146.25-150.95-239.05-343.11-256.27-531.65h-63.14c-17.22,188.56-110.02,380.72-256.26,531.65h169.73l18.56-55.68c14.31-42.91,54.31-71.75,99.55-71.75s85.25,28.84,99.55,71.76l18.55,55.67Z"/>
  <g>
    <path class="cls-1" d="M57.99,910.78c-.8,6.82-3.32,12.09-7.55,15.8-4.24,3.71-9.87,5.56-16.9,5.56-7.62,0-13.73-2.73-18.32-8.2-4.59-5.46-6.89-12.78-6.89-21.93v-6.2c0-5.99,1.07-11.27,3.21-15.82,2.14-4.55,5.18-8.04,9.1-10.48,3.93-2.44,8.48-3.65,13.65-3.65,6.85,0,12.35,1.91,16.48,5.74,4.14,3.83,6.54,9.12,7.22,15.88h-8.55c-.74-5.15-2.34-8.89-4.81-11.2-2.47-2.31-5.91-3.46-10.35-3.46-5.44,0-9.7,2.01-12.78,6.03-3.09,4.02-4.63,9.74-4.63,17.16v6.25c0,7.01,1.46,12.58,4.39,16.72,2.92,4.14,7.02,6.21,12.27,6.21,4.73,0,8.35-1.07,10.88-3.21,2.53-2.14,4.2-5.87,5.03-11.19h8.55Z"/>
    <path class="cls-1" d="M66.15,906.84c0-4.7.92-8.92,2.77-12.67,1.85-3.75,4.42-6.65,7.71-8.68,3.29-2.04,7.05-3.06,11.28-3.06,6.53,0,11.81,2.26,15.84,6.78,4.03,4.52,6.05,10.53,6.05,18.03v.57c0,4.67-.89,8.86-2.68,12.56s-4.34,6.59-7.66,8.66c-3.32,2.07-7.14,3.1-11.45,3.1-6.5,0-11.76-2.26-15.8-6.78-4.03-4.52-6.05-10.5-6.05-17.94v-.58ZM74.39,907.82c0,5.32,1.23,9.59,3.7,12.81,2.47,3.22,5.77,4.83,9.9,4.83s7.47-1.63,9.93-4.9c2.45-3.27,3.68-7.84,3.68-13.71,0-5.26-1.25-9.52-3.74-12.78-2.5-3.26-5.81-4.9-9.95-4.9s-7.31,1.61-9.79,4.83c-2.48,3.22-3.72,7.83-3.72,13.82Z"/>
    <path class="cls-1" d="M127.82,883.31l.27,6.03c3.66-4.61,8.45-6.91,14.36-6.91,10.13,0,15.24,5.72,15.33,17.15v31.68h-8.2v-31.72c-.03-3.46-.82-6.01-2.37-7.67-1.55-1.65-3.97-2.48-7.24-2.48-2.66,0-4.99.71-7,2.13-2.01,1.42-3.57,3.28-4.7,5.58v34.16h-8.2v-47.94h7.75Z"/>
    <path class="cls-1" d="M198.05,918.54c0-2.22-.83-3.94-2.5-5.16-1.67-1.23-4.58-2.28-8.73-3.17-4.15-.89-7.44-1.95-9.88-3.19-2.44-1.24-4.24-2.72-5.41-4.43-1.17-1.71-1.75-3.75-1.75-6.12,0-3.93,1.66-7.25,4.98-9.97,3.32-2.72,7.57-4.08,12.74-4.08,5.44,0,9.84,1.4,13.23,4.21,3.38,2.81,5.07,6.39,5.07,10.77h-8.24c0-2.24-.95-4.18-2.86-5.8-1.91-1.62-4.31-2.44-7.2-2.44s-5.32.65-7,1.95c-1.68,1.3-2.53,3-2.53,5.1,0,1.98.78,3.47,2.35,4.48,1.57,1,4.39,1.96,8.49,2.88,4.09.92,7.41,2.01,9.95,3.28,2.54,1.27,4.42,2.8,5.65,4.59,1.23,1.79,1.84,3.97,1.84,6.53,0,4.28-1.71,7.72-5.14,10.3-3.43,2.58-7.87,3.88-13.34,3.88-3.84,0-7.24-.68-10.19-2.04-2.95-1.36-5.27-3.26-6.93-5.69-1.67-2.44-2.5-5.07-2.5-7.91h8.2c.15,2.75,1.25,4.93,3.3,6.53,2.05,1.61,4.76,2.42,8.13,2.42,3.1,0,5.59-.63,7.47-1.88,1.88-1.26,2.81-2.93,2.81-5.03Z"/>
    <path class="cls-1" d="M246.52,926.51c-3.19,3.75-7.87,5.63-14.04,5.63-5.11,0-9-1.49-11.68-4.45-2.67-2.97-4.02-7.36-4.05-13.18v-31.19h8.2v30.97c0,7.27,2.95,10.9,8.86,10.9,6.26,0,10.43-2.33,12.49-7v-34.87h8.2v47.94h-7.8l-.18-4.74Z"/>
    <path class="cls-1" d="M275.86,931.26h-8.2v-68.06h8.2v68.06Z"/>
    <path class="cls-1" d="M300.09,871.71v11.61h8.95v6.34h-8.95v29.77c0,1.92.4,3.36,1.2,4.33.8.96,2.15,1.44,4.08,1.44.94,0,2.24-.18,3.9-.53v6.61c-2.16.59-4.25.88-6.29.88-3.66,0-6.43-1.11-8.29-3.32-1.86-2.21-2.79-5.36-2.79-9.44v-29.73h-8.73v-6.34h8.73v-11.61h8.2Z"/>
    <path class="cls-1" d="M315.56,906.84c0-4.7.92-8.92,2.77-12.67,1.85-3.75,4.42-6.65,7.71-8.68,3.29-2.04,7.05-3.06,11.28-3.06,6.53,0,11.81,2.26,15.84,6.78,4.03,4.52,6.05,10.53,6.05,18.03v.57c0,4.67-.89,8.86-2.68,12.56-1.79,3.71-4.34,6.59-7.66,8.66-3.32,2.07-7.14,3.1-11.45,3.1-6.5,0-11.76-2.26-15.8-6.78-4.03-4.52-6.05-10.5-6.05-17.94v-.58ZM323.8,907.82c0,5.32,1.23,9.59,3.7,12.81,2.47,3.22,5.77,4.83,9.9,4.83s7.47-1.63,9.93-4.9c2.45-3.27,3.68-7.84,3.68-13.71,0-5.26-1.25-9.52-3.74-12.78-2.5-3.26-5.81-4.9-9.95-4.9s-7.31,1.61-9.79,4.83c-2.48,3.22-3.72,7.83-3.72,13.82Z"/>
    <path class="cls-1" d="M392.65,890.67c-1.24-.21-2.59-.31-4.03-.31-5.38,0-9.02,2.29-10.94,6.87v34.03h-8.2v-47.94h7.98l.13,5.54c2.69-4.28,6.5-6.43,11.43-6.43,1.6,0,2.81.21,3.63.62v7.62Z"/>
    <path class="cls-1" d="M400.23,870.6c0-1.33.41-2.45,1.22-3.37.81-.92,2.02-1.37,3.61-1.37s2.81.46,3.63,1.37c.83.92,1.24,2.04,1.24,3.37s-.41,2.44-1.24,3.32c-.83.88-2.04,1.33-3.63,1.33s-2.8-.44-3.61-1.33c-.81-.89-1.22-1.99-1.22-3.32ZM409.09,931.26h-8.2v-47.94h8.2v47.94Z"/>
    <path class="cls-1" d="M451.8,931.26c-.47-.95-.86-2.63-1.15-5.05-3.81,3.96-8.36,5.94-13.65,5.94-4.73,0-8.6-1.34-11.63-4.01-3.03-2.67-4.54-6.06-4.54-10.17,0-4.99,1.9-8.87,5.69-11.63,3.8-2.76,9.14-4.14,16.02-4.14h7.98v-3.77c0-2.87-.86-5.15-2.57-6.85-1.71-1.7-4.24-2.55-7.58-2.55-2.92,0-5.38.74-7.36,2.22-1.98,1.48-2.97,3.26-2.97,5.36h-8.24c0-2.39.85-4.7,2.55-6.93,1.7-2.23,4-4,6.91-5.29,2.91-1.3,6.11-1.95,9.59-1.95,5.52,0,9.85,1.38,12.98,4.14,3.13,2.76,4.76,6.57,4.87,11.41v22.06c0,4.4.56,7.9,1.68,10.5v.71h-8.6ZM438.2,925.01c2.57,0,5.01-.66,7.31-1.99,2.3-1.33,3.97-3.06,5.01-5.18v-9.84h-6.43c-10.04,0-15.06,2.94-15.06,8.82,0,2.57.86,4.58,2.57,6.03,1.71,1.45,3.91,2.17,6.6,2.17Z"/>
    <path class="cls-1" d="M513.92,932.14c-6.5,0-11.79-2.14-15.86-6.4-4.08-4.27-6.11-9.98-6.11-17.12v-1.51c0-4.76.91-9,2.72-12.74,1.82-3.74,4.36-6.66,7.62-8.77,3.26-2.11,6.8-3.17,10.61-3.17,6.23,0,11.08,2.05,14.53,6.16,3.46,4.11,5.19,9.98,5.19,17.64v3.41h-32.48c.12,4.73,1.5,8.54,4.14,11.45,2.64,2.91,6,4.36,10.08,4.36,2.89,0,5.35-.59,7.36-1.77,2.01-1.18,3.77-2.75,5.27-4.7l5.01,3.9c-4.02,6.17-10.04,9.26-18.08,9.26ZM512.9,889.16c-3.31,0-6.08,1.2-8.33,3.61-2.24,2.41-3.63,5.78-4.16,10.12h24.01v-.62c-.24-4.16-1.36-7.39-3.37-9.68-2.01-2.29-4.73-3.43-8.15-3.43Z"/>
    <path class="cls-1" d="M613.31,910.78c-.8,6.82-3.32,12.09-7.56,15.8-4.24,3.71-9.87,5.56-16.9,5.56-7.62,0-13.73-2.73-18.32-8.2-4.59-5.46-6.89-12.78-6.89-21.93v-6.2c0-5.99,1.07-11.27,3.21-15.82,2.14-4.55,5.18-8.04,9.1-10.48,3.93-2.44,8.48-3.65,13.65-3.65,6.85,0,12.35,1.91,16.48,5.74,4.13,3.83,6.54,9.12,7.22,15.88h-8.55c-.74-5.15-2.34-8.89-4.81-11.2-2.47-2.31-5.92-3.46-10.35-3.46-5.44,0-9.7,2.01-12.78,6.03-3.09,4.02-4.63,9.74-4.63,17.16v6.25c0,7.01,1.46,12.58,4.39,16.72,2.92,4.14,7.02,6.21,12.27,6.21,4.72,0,8.35-1.07,10.88-3.21,2.53-2.14,4.2-5.87,5.03-11.19h8.55Z"/>
    <path class="cls-1" d="M646.81,890.67c-1.24-.21-2.58-.31-4.03-.31-5.38,0-9.03,2.29-10.95,6.87v34.03h-8.2v-47.94h7.97l.13,5.54c2.69-4.28,6.5-6.43,11.43-6.43,1.59,0,2.8.21,3.63.62v7.62Z"/>
    <path class="cls-1" d="M674.23,932.14c-6.5,0-11.79-2.14-15.86-6.4-4.07-4.27-6.11-9.98-6.11-17.12v-1.51c0-4.76.91-9,2.73-12.74,1.82-3.74,4.36-6.66,7.62-8.77,3.26-2.11,6.8-3.17,10.61-3.17,6.23,0,11.08,2.05,14.53,6.16,3.46,4.11,5.18,9.98,5.18,17.64v3.41h-32.48c.12,4.73,1.5,8.54,4.14,11.45,2.64,2.91,6,4.36,10.08,4.36,2.89,0,5.35-.59,7.36-1.77,2.01-1.18,3.77-2.75,5.27-4.7l5.01,3.9c-4.02,6.17-10.04,9.26-18.08,9.26ZM673.21,889.16c-3.31,0-6.09,1.2-8.33,3.61-2.25,2.41-3.63,5.78-4.16,10.12h24.01v-.62c-.24-4.16-1.36-7.39-3.37-9.68-2.01-2.29-4.73-3.43-8.15-3.43ZM677.2,863.2h9.93l-11.87,13.03-6.6-.02,8.55-13Z"/>
    <path class="cls-1" d="M700.42,906.89c0-7.35,1.74-13.27,5.23-17.75,3.48-4.47,8.05-6.71,13.69-6.71s10.06,1.92,13.34,5.76v-24.99h8.2v68.06h-7.53l-.4-5.14c-3.28,4.02-7.84,6.03-13.69,6.03s-10.08-2.28-13.58-6.82c-3.5-4.55-5.25-10.48-5.25-17.81v-.62ZM708.62,907.82c0,5.44,1.12,9.69,3.37,12.76,2.24,3.07,5.35,4.61,9.31,4.61,5.2,0,8.99-2.33,11.39-7v-22.02c-2.45-4.52-6.22-6.78-11.3-6.78-4.02,0-7.15,1.55-9.39,4.65-2.24,3.1-3.37,7.69-3.37,13.78Z"/>
    <path class="cls-1" d="M753.63,870.6c0-1.33.41-2.45,1.22-3.37.81-.92,2.02-1.37,3.61-1.37s2.81.46,3.63,1.37c.83.92,1.24,2.04,1.24,3.37s-.41,2.44-1.24,3.32c-.83.88-2.04,1.33-3.63,1.33s-2.8-.44-3.61-1.33c-.81-.89-1.22-1.99-1.22-3.32ZM762.49,931.26h-8.2v-47.94h8.2v47.94Z"/>
    <path class="cls-1" d="M786.73,871.71v11.61h8.95v6.34h-8.95v29.77c0,1.92.4,3.36,1.2,4.33.8.96,2.16,1.44,4.08,1.44.95,0,2.24-.18,3.9-.53v6.61c-2.16.59-4.25.88-6.29.88-3.66,0-6.43-1.11-8.29-3.32-1.86-2.21-2.79-5.36-2.79-9.44v-29.73h-8.73v-6.34h8.73v-11.61h8.2Z"/>
    <path class="cls-1" d="M802.19,906.84c0-4.7.92-8.92,2.77-12.67,1.85-3.75,4.42-6.65,7.71-8.68,3.29-2.04,7.05-3.06,11.28-3.06,6.53,0,11.81,2.26,15.84,6.78,4.03,4.52,6.05,10.53,6.05,18.03v.57c0,4.67-.9,8.86-2.68,12.56-1.79,3.71-4.34,6.59-7.66,8.66-3.32,2.07-7.14,3.1-11.45,3.1-6.5,0-11.76-2.26-15.79-6.78-4.03-4.52-6.05-10.5-6.05-17.94v-.58ZM810.44,907.82c0,5.32,1.23,9.59,3.7,12.81,2.47,3.22,5.77,4.83,9.9,4.83s7.47-1.63,9.93-4.9c2.45-3.27,3.68-7.84,3.68-13.71,0-5.26-1.25-9.52-3.74-12.78-2.5-3.26-5.81-4.9-9.95-4.9s-7.31,1.61-9.79,4.83c-2.48,3.22-3.72,7.83-3.72,13.82Z"/>
    <path class="cls-1" d="M903.53,905.16h-15.15v26.1h-8.55v-64.51h21.36c7.27,0,12.86,1.65,16.77,4.96,3.91,3.31,5.87,8.12,5.87,14.45,0,4.02-1.09,7.52-3.26,10.5-2.17,2.98-5.19,5.21-9.06,6.69l15.15,27.38v.53h-9.13l-14-26.1ZM888.37,898.2h13.07c4.22,0,7.58-1.09,10.08-3.28,2.49-2.19,3.74-5.12,3.74-8.79,0-3.99-1.19-7.05-3.57-9.19-2.38-2.13-5.81-3.21-10.3-3.24h-13.03v24.5Z"/>
    <path class="cls-1" d="M964.05,926.51c-3.19,3.75-7.87,5.63-14.05,5.63-5.11,0-9-1.49-11.67-4.45-2.67-2.97-4.03-7.36-4.06-13.18v-31.19h8.2v30.97c0,7.27,2.95,10.9,8.86,10.9,6.26,0,10.43-2.33,12.49-7v-34.87h8.2v47.94h-7.8l-.18-4.74Z"/>
    <path class="cls-1" d="M1007.65,890.67c-1.24-.21-2.58-.31-4.03-.31-5.38,0-9.03,2.29-10.95,6.87v34.03h-8.2v-47.94h7.97l.13,5.54c2.69-4.28,6.5-6.43,11.43-6.43,1.59,0,2.8.21,3.63.62v7.62Z"/>
    <path class="cls-1" d="M1043.01,931.26c-.47-.95-.86-2.63-1.15-5.05-3.81,3.96-8.36,5.94-13.65,5.94-4.73,0-8.6-1.34-11.63-4.01-3.03-2.67-4.54-6.06-4.54-10.17,0-4.99,1.9-8.87,5.69-11.63,3.79-2.76,9.13-4.14,16.02-4.14h7.98v-3.77c0-2.87-.86-5.15-2.57-6.85-1.71-1.7-4.24-2.55-7.57-2.55-2.93,0-5.38.74-7.36,2.22-1.98,1.48-2.97,3.26-2.97,5.36h-8.24c0-2.39.85-4.7,2.55-6.93,1.7-2.23,4-4,6.91-5.29,2.91-1.3,6.11-1.95,9.59-1.95,5.52,0,9.85,1.38,12.98,4.14,3.13,2.76,4.76,6.57,4.87,11.41v22.06c0,4.4.56,7.9,1.68,10.5v.71h-8.6ZM1029.41,925.01c2.57,0,5.01-.66,7.31-1.99,2.3-1.33,3.97-3.06,5.01-5.18v-9.84h-6.43c-10.04,0-15.07,2.94-15.07,8.82,0,2.57.86,4.58,2.57,6.03,1.71,1.45,3.91,2.17,6.6,2.17Z"/>
    <path class="cls-1" d="M1071.68,931.26h-8.2v-68.06h8.2v68.06Z"/>
  </g>
  <g>
    <path class="cls-1" d="M90.21,766.19c0,10.51-3.43,19.5-10.3,26.96-6.87,7.46-15.13,11.19-24.8,11.19h-6.08c-9.67,0-17.94-3.72-24.8-11.17-6.87-7.45-10.3-16.42-10.3-26.92v-94.45c0-10.49,3.43-19.47,10.3-26.92,6.86-7.45,15.13-11.17,24.8-11.17h6.08c9.67,0,17.94,3.73,24.8,11.19,6.86,7.46,10.3,16.45,10.3,26.95v26.19h-22.93v-15.16c0-17.52-5.23-26.28-15.68-26.28-9.51,0-14.27,7.09-14.27,21.27v81.55c0,14.19,5.15,21.27,15.45,21.27,9.67,0,14.5-7.12,14.5-21.36v-22.12h22.93v28.99Z"/>
    <path class="cls-1" d="M177.01,766.27c0,10.49-3.43,19.46-10.3,26.9-6.87,7.45-15.13,11.16-24.8,11.16h-6.08c-9.67,0-17.94-3.72-24.8-11.16-6.87-7.44-10.3-16.41-10.3-26.9v-46.19c0-10.49,3.43-19.45,10.3-26.9,6.86-7.44,15.13-11.16,24.8-11.16h6.08c9.67,0,17.94,3.72,24.8,11.16,6.86,7.45,10.3,16.41,10.3,26.9v46.19ZM153.62,759.47v-33.34c0-14.15-5.07-21.22-15.21-21.22-9.51,0-14.27,7.07-14.27,21.22v33.34c0,14.15,5.07,21.22,15.21,21.22,9.51,0,14.27-7.07,14.27-21.22Z"/>
    <path class="cls-1" d="M265.45,717.97v84.07h-22.93v-77.97c0-14.13-5.19-21.2-15.58-21.2-9.43,0-14.14,4.8-14.14,14.38l.7,84.79h-24.57v-122.06l23.87.25v6.36c3.57-4.41,10.25-6.61,20.03-6.61s17.47,3.68,23.53,11.02c6.05,7.34,9.09,16.33,9.09,26.97Z"/>
    <path class="cls-1" d="M330.49,708.21h-17.08v93.83h-22.93v-93.83h-11.93v-22.38h11.93v-13.99c0-10.68,4.26-19.92,12.79-27.72,8.22-7.29,17.29-10.93,27.22-10.93v24.92c-11.39-.34-17.08,8.9-17.08,27.72h17.08v22.38Z"/>
    <path class="cls-1" d="M368.62,664.98h-24.33v-28.23l24.33.25v27.97ZM368.62,802.04h-24.33v-122.06h24.33v122.06Z"/>
    <path class="cls-1" d="M460.1,636.76v165.29h-22.46v-7.37c-3.12,6.44-9.51,9.66-19.18,9.66s-17.94-3.72-24.8-11.16c-6.87-7.44-10.3-16.41-10.3-26.9v-46.19c0-10.49,3.4-19.45,10.2-26.9,6.8-7.44,15-11.16,24.58-11.16h6.03c4.33,0,8.19,2.38,11.6,7.12v-52.13l24.33-.25ZM435.77,719.31c0-9.6-4.64-14.4-13.93-14.4-10.06,0-15.09,7.07-15.09,21.22v33.34c0,14.15,4.76,21.22,14.27,21.22,3.9,0,7.33-1.43,10.3-4.29,2.96-2.86,4.45-6.4,4.45-10.61v-46.48Z"/>
    <path class="cls-1" d="M549.71,766.19c0,10.51-3.43,19.5-10.3,26.96-6.87,7.46-15.13,11.19-24.8,11.19h-6.08c-9.67,0-17.94-3.72-24.8-11.16-6.87-7.44-10.3-16.41-10.3-26.9v-46.19c0-10.49,3.43-19.45,10.3-26.9,6.86-7.44,15.13-11.16,24.8-11.16h6.08c9.67,0,17.94,3.73,24.8,11.19,6.86,7.46,10.3,16.45,10.3,26.96v35.09h-52.88v4.28c0,7.89,1.62,13.44,4.87,16.62,3.25,3.19,8.59,4.78,16.02,4.78,4.17,0,7.04-4.91,8.59-14.75h23.4ZM526.31,734.15v-8.06c0-14.12-5.07-21.18-15.21-21.18-9.51,0-14.27,7.12-14.27,21.36v7.88h29.48Z"/>
    <path class="cls-1" d="M638.62,717.97v84.07h-22.93v-77.97c0-14.13-5.19-21.2-15.58-21.2-9.43,0-14.14,4.8-14.14,14.38l.7,84.79h-24.57v-122.06l23.87.25v6.36c3.57-4.41,10.25-6.61,20.03-6.61s17.47,3.68,23.53,11.02c6.05,7.34,9.09,16.33,9.09,26.97Z"/>
    <path class="cls-1" d="M727.29,767.21c0,10.51-3.43,19.49-10.3,26.95-6.87,7.46-15.13,11.19-24.8,11.19h-6.08c-8.89,0-16.61-3.14-23.17-9.41-6.55-6.27-10.45-14.15-11.7-23.65h24.57c2.18,6.78,6.79,10.17,13.8,10.17,3.74,0,7.06-1.38,9.94-4.16,2.89-2.77,4.33-6.09,4.33-9.95,0-9.07-5.85-13.61-17.55-13.61-9.98,0-18.33-3.05-25.03-9.15-7.18-6.44-10.76-14.92-10.76-25.43s3.43-19.49,10.3-26.96c6.86-7.46,15.13-11.19,24.8-11.19h6.08c8.89,0,16.65,3.18,23.28,9.54,6.63,6.36,10.49,14.28,11.58,23.77h-24.57c-2.03-6.95-6.63-10.42-13.8-10.42-3.9,0-7.25,1.3-10.06,3.9-2.81,2.61-4.21,6.01-4.21,10.2,0,9.07,5.85,13.61,17.55,13.61,9.98,0,18.32,2.97,25.03,8.9,7.17,6.44,10.76,15,10.76,25.69Z"/>
    <path class="cls-1" d="M814.09,802.04h-24.21l-5.68-37.63h-17.88l-5.89,37.63h-24.24l26.9-165.29,25.04.25,25.97,165.03ZM780.4,737.96l-4.91-40.18-4.91,40.18h9.83Z"/>
    <path class="cls-1" d="M905.1,811.2c0,10.68-4.37,19.84-13.1,27.46-8.11,7.46-17.16,11.19-27.14,11.19s-18.68-4.59-26.55-13.76c-7.88-9.18-11.81-19.25-11.81-30.23h24.54c-.16,14.07,5.11,21.11,15.81,21.11s15.34-7.24,15.34-21.72c0-1.72-.31-4.74-.94-9.05-3.46,4.92-9.44,7.37-17.94,7.37-9.75,0-18.09-3.73-25.02-11.21-6.92-7.47-10.38-16.48-10.38-27.01v-46.38c0-11.89,3.82-21.32,11.46-28.29,7.17-6.62,16.3-9.93,27.38-9.93,2.49,0,5.38,1.09,8.66,3.26s5.54,4.48,6.79,6.91v-7.12h22.93v127.4ZM881,753.57v-8.62c-.16-3.89-.23-6.84-.23-8.87,0-10.98-.39-17.91-1.17-20.78-1.87-7.1-6.55-10.64-14.04-10.64-9.52,0-14.27,7.09-14.27,21.29v33.45c0,14.19,5.07,21.29,15.21,21.29,6.24,0,10.45-3.04,12.64-9.12,1.24-3.89,1.87-9.88,1.87-18Z"/>
    <path class="cls-1" d="M985.12,694.25l-19.38,16.51c-2.37-5.25-6.78-7.88-13.24-7.88-9.3,0-13.94,4.8-13.94,14.38l.7,84.79h-24.57v-122.06l23.87.25v6.36c3.58-4.41,10.29-6.61,20.12-6.61,11.23,0,20.04,4.76,26.44,14.26Z"/>
    <path class="cls-1" d="M1066.3,766.27c0,10.49-3.43,19.46-10.29,26.9-6.87,7.45-15.13,11.16-24.8,11.16h-6.08c-9.67,0-17.94-3.72-24.8-11.16-6.87-7.44-10.3-16.41-10.3-26.9v-46.19c0-10.49,3.43-19.45,10.3-26.9,6.86-7.44,15.13-11.16,24.8-11.16h6.08c9.67,0,17.94,3.72,24.8,11.16,6.86,7.45,10.29,16.41,10.29,26.9v46.19ZM1042.9,759.47v-33.34c0-14.15-5.07-21.22-15.21-21.22-9.51,0-14.27,7.07-14.27,21.22v33.34c0,14.15,5.07,21.22,15.21,21.22,9.51,0,14.27-7.07,14.27-21.22Z"/>
  </g>
</svg>